<svg width="131" height="78" viewBox="0 0 131 78" fill="none" xmlns="http://www.w3.org/2000/svg">
<path d="M5.01136 15V3.36364H12.7159V5.39205H7.47159V8.16477H12.2045V10.1932H7.47159V15H5.01136ZM14.9233 15H12.2869L16.304 3.36364H19.4744L23.4858 15H20.8494L17.9347 6.02273H17.8438L14.9233 15ZM14.7585 10.4261H20.9858V12.3466H14.7585V10.4261ZM34.6065 7.4375H32.1179C32.0724 7.11553 31.9796 6.82955 31.8395 6.57955C31.6993 6.32576 31.5194 6.10985 31.2997 5.93182C31.08 5.75379 30.8262 5.61742 30.5384 5.52273C30.2543 5.42803 29.9455 5.38068 29.6122 5.38068C29.0099 5.38068 28.4853 5.5303 28.0384 5.82955C27.5914 6.125 27.2448 6.55682 26.9986 7.125C26.7524 7.68939 26.6293 8.375 26.6293 9.18182C26.6293 10.0114 26.7524 10.7083 26.9986 11.2727C27.2486 11.8371 27.5971 12.2633 28.044 12.5511C28.491 12.839 29.008 12.983 29.5952 12.983C29.9247 12.983 30.2296 12.9394 30.5099 12.8523C30.794 12.7652 31.0459 12.6383 31.2656 12.4716C31.4853 12.3011 31.6671 12.0947 31.8111 11.8523C31.9588 11.6098 32.0611 11.3333 32.1179 11.0227L34.6065 11.0341C34.5421 11.5682 34.3812 12.0833 34.1236 12.5795C33.8698 13.072 33.527 13.5133 33.0952 13.9034C32.6671 14.2898 32.1558 14.5966 31.5611 14.8239C30.9702 15.0473 30.3016 15.1591 29.5554 15.1591C28.5175 15.1591 27.5895 14.9242 26.7713 14.4545C25.9569 13.9848 25.313 13.3049 24.8395 12.4148C24.3698 11.5246 24.1349 10.447 24.1349 9.18182C24.1349 7.91288 24.3736 6.83333 24.8509 5.94318C25.3281 5.05303 25.9759 4.375 26.794 3.90909C27.6122 3.43939 28.5327 3.20455 29.5554 3.20455C30.2296 3.20455 30.8546 3.29924 31.4304 3.48864C32.0099 3.67803 32.5232 3.95455 32.9702 4.31818C33.4171 4.67803 33.7808 5.11932 34.0611 5.64205C34.3452 6.16477 34.527 6.76326 34.6065 7.4375ZM36.3707 15V3.36364H44.2116V5.39205H38.831V8.16477H43.8082V10.1932H38.831V12.9716H44.2344V15H36.3707ZM50.2926 15H46.1676V3.36364H50.3267C51.4972 3.36364 52.5047 3.59659 53.3494 4.0625C54.1941 4.52462 54.8438 5.18939 55.2983 6.05682C55.7566 6.92424 55.9858 7.96212 55.9858 9.17045C55.9858 10.3826 55.7566 11.4242 55.2983 12.2955C54.8438 13.1667 54.1903 13.8352 53.3381 14.3011C52.4896 14.767 51.4744 15 50.2926 15ZM48.6278 12.892H50.1903C50.9176 12.892 51.5294 12.7633 52.0256 12.5057C52.5256 12.2443 52.9006 11.8409 53.1506 11.2955C53.4044 10.7462 53.5312 10.0379 53.5312 9.17045C53.5312 8.31061 53.4044 7.60795 53.1506 7.0625C52.9006 6.51705 52.5275 6.11553 52.0312 5.85795C51.535 5.60038 50.9233 5.47159 50.196 5.47159H48.6278V12.892ZM59.1577 15H56.5213L60.5384 3.36364H63.7088L67.7202 15H65.0838L62.169 6.02273H62.0781L59.1577 15ZM58.9929 10.4261H65.2202V12.3466H58.9929V10.4261ZM69.1207 15V3.36364H73.7116C74.5904 3.36364 75.3404 3.52083 75.9616 3.83523C76.5866 4.14583 77.062 4.58712 77.3878 5.15909C77.7173 5.72727 77.8821 6.39583 77.8821 7.16477C77.8821 7.9375 77.7154 8.60227 77.3821 9.15909C77.0488 9.71212 76.5658 10.1364 75.9332 10.4318C75.3045 10.7273 74.5431 10.875 73.6491 10.875H70.5753V8.89773H73.2514C73.7211 8.89773 74.1113 8.83333 74.4219 8.70455C74.7325 8.57576 74.9635 8.38258 75.1151 8.125C75.2704 7.86742 75.348 7.54735 75.348 7.16477C75.348 6.77841 75.2704 6.45265 75.1151 6.1875C74.9635 5.92235 74.7306 5.72159 74.4162 5.58523C74.1056 5.44508 73.7135 5.375 73.2401 5.375H71.581V15H69.1207ZM75.4048 9.70455L78.2969 15H75.581L72.7514 9.70455H75.4048ZM79.6207 15V3.36364H82.081V12.9716H87.0696V15H79.6207ZM91.5611 13.2273V5.18182H93.5952V13.2273H91.5611ZM88.5554 10.2216V8.1875H96.6009V10.2216H88.5554ZM101.487 3.36364V15H99.027V3.36364H101.487ZM113.244 3.36364V15H111.119L106.057 7.67614H105.972V15H103.511V3.36364H105.67L110.693 10.6818H110.795V3.36364H113.244ZM122.993 7.125C122.913 6.84848 122.802 6.60417 122.658 6.39205C122.514 6.17614 122.338 5.99432 122.129 5.84659C121.925 5.69508 121.69 5.57955 121.425 5.5C121.163 5.42045 120.874 5.38068 120.555 5.38068C119.961 5.38068 119.438 5.52841 118.987 5.82386C118.54 6.11932 118.192 6.54924 117.942 7.11364C117.692 7.67424 117.567 8.35985 117.567 9.17045C117.567 9.98106 117.69 10.6705 117.936 11.2386C118.182 11.8068 118.531 12.2405 118.982 12.5398C119.432 12.8352 119.964 12.983 120.578 12.983C121.135 12.983 121.61 12.8845 122.004 12.6875C122.402 12.4867 122.705 12.2045 122.913 11.8409C123.125 11.4773 123.232 11.0473 123.232 10.5511L123.732 10.625H120.732V8.77273H125.601V10.2386C125.601 11.2614 125.385 12.1402 124.953 12.875C124.521 13.6061 123.927 14.1705 123.169 14.5682C122.411 14.9621 121.544 15.1591 120.567 15.1591C119.476 15.1591 118.518 14.9186 117.692 14.4375C116.866 13.9527 116.222 13.2652 115.76 12.375C115.302 11.4811 115.072 10.4205 115.072 9.19318C115.072 8.25 115.209 7.40909 115.482 6.67045C115.758 5.92803 116.144 5.29924 116.641 4.78409C117.137 4.26894 117.714 3.87689 118.374 3.60795C119.033 3.33901 119.747 3.20455 120.516 3.20455C121.175 3.20455 121.788 3.30114 122.357 3.49432C122.925 3.68371 123.429 3.95265 123.868 4.30114C124.311 4.64962 124.673 5.06439 124.953 5.54545C125.233 6.02273 125.413 6.54924 125.493 7.125H122.993Z" fill="#BE97FF" fill-opacity="0.4"/>
<path d="M2.52841 69V39.9091H8.67898V63.929H21.1506V69H2.52841ZM52.4239 54.4545C52.4239 57.6269 51.8225 60.3258 50.6199 62.5511C49.4267 64.7765 47.7979 66.4763 45.7335 67.6506C43.6786 68.8153 41.368 69.3977 38.8017 69.3977C36.2165 69.3977 33.8964 68.8106 31.8415 67.6364C29.7866 66.4621 28.1625 64.7623 26.9693 62.5369C25.7761 60.3116 25.1795 57.6174 25.1795 54.4545C25.1795 51.2822 25.7761 48.5833 26.9693 46.358C28.1625 44.1326 29.7866 42.4375 31.8415 41.2727C33.8964 40.0985 36.2165 39.5114 38.8017 39.5114C41.368 39.5114 43.6786 40.0985 45.7335 41.2727C47.7979 42.4375 49.4267 44.1326 50.6199 46.358C51.8225 48.5833 52.4239 51.2822 52.4239 54.4545ZM46.1881 54.4545C46.1881 52.3996 45.8803 50.6667 45.2648 49.2557C44.6587 47.8447 43.8017 46.7746 42.6938 46.0455C41.5858 45.3163 40.2884 44.9517 38.8017 44.9517C37.315 44.9517 36.0176 45.3163 34.9097 46.0455C33.8017 46.7746 32.94 47.8447 32.3244 49.2557C31.7184 50.6667 31.4153 52.3996 31.4153 54.4545C31.4153 56.5095 31.7184 58.2424 32.3244 59.6534C32.94 61.0644 33.8017 62.1345 34.9097 62.8636C36.0176 63.5928 37.315 63.9574 38.8017 63.9574C40.2884 63.9574 41.5858 63.5928 42.6938 62.8636C43.8017 62.1345 44.6587 61.0644 45.2648 59.6534C45.8803 58.2424 46.1881 56.5095 46.1881 54.4545ZM77.8697 49.3125C77.6709 48.6212 77.3915 48.0104 77.0317 47.4801C76.6718 46.9403 76.2315 46.4858 75.7107 46.1165C75.1993 45.7377 74.6122 45.4489 73.9493 45.25C73.2959 45.0511 72.5714 44.9517 71.776 44.9517C70.2893 44.9517 68.9824 45.321 67.8555 46.0597C66.7381 46.7983 65.8669 47.8731 65.2419 49.2841C64.6169 50.6856 64.3044 52.3996 64.3044 54.4261C64.3044 56.4527 64.6122 58.1761 65.2277 59.5966C65.8432 61.017 66.7144 62.1013 67.8413 62.8494C68.9682 63.5881 70.2987 63.9574 71.8328 63.9574C73.2249 63.9574 74.4133 63.7112 75.3982 63.2188C76.3925 62.7169 77.15 62.0114 77.6709 61.1023C78.2012 60.1932 78.4663 59.1184 78.4663 57.8778L79.7163 58.0625H72.2163V53.4318H84.3896V57.0966C84.3896 59.6534 83.8499 61.8504 82.7703 63.6875C81.6908 65.5152 80.204 66.9261 78.3101 67.9205C76.4161 68.9053 74.2476 69.3977 71.8044 69.3977C69.0771 69.3977 66.6813 68.7964 64.6169 67.5938C62.5525 66.3816 60.9427 64.6629 59.7874 62.4375C58.6415 60.2027 58.0686 57.5511 58.0686 54.483C58.0686 52.125 58.4095 50.0227 59.0913 48.1761C59.7826 46.3201 60.7485 44.7481 61.9891 43.4602C63.2296 42.1723 64.6737 41.1922 66.3214 40.5199C67.9692 39.8475 69.7542 39.5114 71.6766 39.5114C73.3243 39.5114 74.8584 39.7528 76.2788 40.2358C77.6993 40.7093 78.9588 41.3816 80.0572 42.2528C81.1652 43.1241 82.0696 44.161 82.7703 45.3636C83.4711 46.5568 83.9209 47.8731 84.1197 49.3125H77.8697ZM96.7602 39.9091V69H90.6097V39.9091H96.7602ZM127.753 39.9091V69H122.44L109.784 50.6903H109.571V69H103.421V39.9091H108.818L121.375 58.2045H121.631V39.9091H127.753Z" fill="black"/>
</svg>
