<svg width="172" height="77" viewBox="0 0 172 77" fill="none" xmlns="http://www.w3.org/2000/svg">
<path d="M26.0114 15V3.36364H33.7159V5.39205H28.4716V8.16477H33.2045V10.1932H28.4716V15H26.0114ZM35.9233 15H33.2869L37.304 3.36364H40.4744L44.4858 15H41.8494L38.9347 6.02273H38.8438L35.9233 15ZM35.7585 10.4261H41.9858V12.3466H35.7585V10.4261ZM55.6065 7.4375H53.1179C53.0724 7.11553 52.9796 6.82955 52.8395 6.57955C52.6993 6.32576 52.5194 6.10985 52.2997 5.93182C52.08 5.75379 51.8262 5.61742 51.5384 5.52273C51.2543 5.42803 50.9455 5.38068 50.6122 5.38068C50.0099 5.38068 49.4853 5.5303 49.0384 5.82955C48.5914 6.125 48.2448 6.55682 47.9986 7.125C47.7524 7.68939 47.6293 8.375 47.6293 9.18182C47.6293 10.0114 47.7524 10.7083 47.9986 11.2727C48.2486 11.8371 48.5971 12.2633 49.044 12.5511C49.491 12.839 50.008 12.983 50.5952 12.983C50.9247 12.983 51.2296 12.9394 51.5099 12.8523C51.794 12.7652 52.0459 12.6383 52.2656 12.4716C52.4853 12.3011 52.6671 12.0947 52.8111 11.8523C52.9588 11.6098 53.0611 11.3333 53.1179 11.0227L55.6065 11.0341C55.5421 11.5682 55.3812 12.0833 55.1236 12.5795C54.8698 13.072 54.527 13.5133 54.0952 13.9034C53.6671 14.2898 53.1558 14.5966 52.5611 14.8239C51.9702 15.0473 51.3016 15.1591 50.5554 15.1591C49.5175 15.1591 48.5895 14.9242 47.7713 14.4545C46.9569 13.9848 46.313 13.3049 45.8395 12.4148C45.3698 11.5246 45.1349 10.447 45.1349 9.18182C45.1349 7.91288 45.3736 6.83333 45.8509 5.94318C46.3281 5.05303 46.9759 4.375 47.794 3.90909C48.6122 3.43939 49.5327 3.20455 50.5554 3.20455C51.2296 3.20455 51.8546 3.29924 52.4304 3.48864C53.0099 3.67803 53.5232 3.95455 53.9702 4.31818C54.4171 4.67803 54.7808 5.11932 55.0611 5.64205C55.3452 6.16477 55.527 6.76326 55.6065 7.4375ZM57.3707 15V3.36364H65.2116V5.39205H59.831V8.16477H64.8082V10.1932H59.831V12.9716H65.2344V15H57.3707ZM71.2926 15H67.1676V3.36364H71.3267C72.4972 3.36364 73.5047 3.59659 74.3494 4.0625C75.1941 4.52462 75.8438 5.18939 76.2983 6.05682C76.7566 6.92424 76.9858 7.96212 76.9858 9.17045C76.9858 10.3826 76.7566 11.4242 76.2983 12.2955C75.8438 13.1667 75.1903 13.8352 74.3381 14.3011C73.4896 14.767 72.4744 15 71.2926 15ZM69.6278 12.892H71.1903C71.9176 12.892 72.5294 12.7633 73.0256 12.5057C73.5256 12.2443 73.9006 11.8409 74.1506 11.2955C74.4044 10.7462 74.5312 10.0379 74.5312 9.17045C74.5312 8.31061 74.4044 7.60795 74.1506 7.0625C73.9006 6.51705 73.5275 6.11553 73.0312 5.85795C72.535 5.60038 71.9233 5.47159 71.196 5.47159H69.6278V12.892ZM80.1577 15H77.5213L81.5384 3.36364H84.7088L88.7202 15H86.0838L83.169 6.02273H83.0781L80.1577 15ZM79.9929 10.4261H86.2202V12.3466H79.9929V10.4261ZM90.1207 15V3.36364H94.7116C95.5904 3.36364 96.3404 3.52083 96.9616 3.83523C97.5866 4.14583 98.062 4.58712 98.3878 5.15909C98.7173 5.72727 98.8821 6.39583 98.8821 7.16477C98.8821 7.9375 98.7154 8.60227 98.3821 9.15909C98.0488 9.71212 97.5658 10.1364 96.9332 10.4318C96.3045 10.7273 95.5431 10.875 94.6491 10.875H91.5753V8.89773H94.2514C94.7211 8.89773 95.1113 8.83333 95.4219 8.70455C95.7325 8.57576 95.9635 8.38258 96.1151 8.125C96.2704 7.86742 96.348 7.54735 96.348 7.16477C96.348 6.77841 96.2704 6.45265 96.1151 6.1875C95.9635 5.92235 95.7306 5.72159 95.4162 5.58523C95.1056 5.44508 94.7135 5.375 94.2401 5.375H92.581V15H90.1207ZM96.4048 9.70455L99.2969 15H96.581L93.7514 9.70455H96.4048ZM100.621 15V3.36364H103.081V12.9716H108.07V15H100.621ZM112.561 13.2273V5.18182H114.595V13.2273H112.561ZM109.555 10.2216V8.1875H117.601V10.2216H109.555ZM122.487 3.36364V15H120.027V3.36364H122.487ZM134.244 3.36364V15H132.119L127.057 7.67614H126.972V15H124.511V3.36364H126.67L131.693 10.6818H131.795V3.36364H134.244ZM143.993 7.125C143.913 6.84848 143.802 6.60417 143.658 6.39205C143.514 6.17614 143.338 5.99432 143.129 5.84659C142.925 5.69508 142.69 5.57955 142.425 5.5C142.163 5.42045 141.874 5.38068 141.555 5.38068C140.961 5.38068 140.438 5.52841 139.987 5.82386C139.54 6.11932 139.192 6.54924 138.942 7.11364C138.692 7.67424 138.567 8.35985 138.567 9.17045C138.567 9.98106 138.69 10.6705 138.936 11.2386C139.182 11.8068 139.531 12.2405 139.982 12.5398C140.432 12.8352 140.964 12.983 141.578 12.983C142.135 12.983 142.61 12.8845 143.004 12.6875C143.402 12.4867 143.705 12.2045 143.913 11.8409C144.125 11.4773 144.232 11.0473 144.232 10.5511L144.732 10.625H141.732V8.77273H146.601V10.2386C146.601 11.2614 146.385 12.1402 145.953 12.875C145.521 13.6061 144.927 14.1705 144.169 14.5682C143.411 14.9621 142.544 15.1591 141.567 15.1591C140.476 15.1591 139.518 14.9186 138.692 14.4375C137.866 13.9527 137.222 13.2652 136.76 12.375C136.302 11.4811 136.072 10.4205 136.072 9.19318C136.072 8.25 136.209 7.40909 136.482 6.67045C136.758 5.92803 137.144 5.29924 137.641 4.78409C138.137 4.26894 138.714 3.87689 139.374 3.60795C140.033 3.33901 140.747 3.20455 141.516 3.20455C142.175 3.20455 142.788 3.30114 143.357 3.49432C143.925 3.68371 144.429 3.95265 144.868 4.30114C145.311 4.64962 145.673 5.06439 145.953 5.54545C146.233 6.02273 146.413 6.54924 146.493 7.125H143.993Z" fill="#BE97FF" fill-opacity="0.4"/>
<path d="M18.3097 47.2756C18.196 46.1297 17.7083 45.2396 16.8466 44.6051C15.9848 43.9706 14.8153 43.6534 13.3381 43.6534C12.3343 43.6534 11.4867 43.7955 10.7955 44.0795C10.1042 44.3542 9.57386 44.7377 9.20455 45.2301C8.8447 45.7225 8.66477 46.2812 8.66477 46.9062C8.64583 47.4271 8.75473 47.8816 8.99148 48.2699C9.23769 48.6581 9.57386 48.9943 10 49.2784C10.4261 49.553 10.9186 49.7945 11.4773 50.0028C12.036 50.2017 12.6326 50.3722 13.267 50.5142L15.8807 51.1392C17.1496 51.4233 18.3144 51.8021 19.375 52.2756C20.4356 52.7491 21.3542 53.3314 22.1307 54.0227C22.9072 54.714 23.5085 55.5284 23.9347 56.4659C24.3703 57.4034 24.5928 58.4782 24.6023 59.6903C24.5928 61.4706 24.1383 63.0142 23.2386 64.321C22.3485 65.6184 21.0606 66.6269 19.375 67.3466C17.6989 68.0568 15.6771 68.4119 13.3097 68.4119C10.9612 68.4119 8.91572 68.0521 7.1733 67.3324C5.44034 66.6127 4.08617 65.5473 3.1108 64.1364C2.14489 62.7159 1.63826 60.9593 1.59091 58.8665H7.54261C7.6089 59.8419 7.88826 60.6562 8.38068 61.3097C8.88258 61.9536 9.55019 62.4413 10.3835 62.7727C11.2263 63.0947 12.178 63.2557 13.2386 63.2557C14.2803 63.2557 15.1847 63.1042 15.9517 62.8011C16.7282 62.4981 17.3295 62.0767 17.7557 61.5369C18.1818 60.9972 18.3949 60.3769 18.3949 59.6761C18.3949 59.0227 18.2008 58.4735 17.8125 58.0284C17.4337 57.5833 16.875 57.2045 16.1364 56.892C15.4072 56.5795 14.5123 56.2955 13.4517 56.0398L10.2841 55.2443C7.83144 54.6477 5.89489 53.715 4.47443 52.446C3.05398 51.1771 2.34848 49.4678 2.35795 47.3182C2.34848 45.5568 2.81723 44.018 3.7642 42.7017C4.72064 41.3854 6.0322 40.358 7.69886 39.6193C9.36553 38.8807 11.2595 38.5114 13.3807 38.5114C15.5398 38.5114 17.4242 38.8807 19.0341 39.6193C20.6534 40.358 21.9129 41.3854 22.8125 42.7017C23.7121 44.018 24.1761 45.5426 24.2045 47.2756H18.3097ZM36.4899 38.9091V68H30.3393V38.9091H36.4899ZM62.4401 48.3125C62.2412 47.6212 61.9618 47.0104 61.602 46.4801C61.2421 45.9403 60.8018 45.4858 60.281 45.1165C59.7696 44.7377 59.1825 44.4489 58.5196 44.25C57.8662 44.0511 57.1418 43.9517 56.3463 43.9517C54.8596 43.9517 53.5527 44.321 52.4259 45.0597C51.3084 45.7983 50.4372 46.8731 49.8122 48.2841C49.1872 49.6856 48.8747 51.3996 48.8747 53.4261C48.8747 55.4527 49.1825 57.1761 49.798 58.5966C50.4135 60.017 51.2848 61.1013 52.4116 61.8494C53.5385 62.5881 54.869 62.9574 56.4031 62.9574C57.7952 62.9574 58.9836 62.7112 59.9685 62.2188C60.9628 61.7169 61.7204 61.0114 62.2412 60.1023C62.7715 59.1932 63.0366 58.1184 63.0366 56.8778L64.2866 57.0625H56.7866V52.4318H68.9599V56.0966C68.9599 58.6534 68.4202 60.8504 67.3406 62.6875C66.2611 64.5152 64.7743 65.9261 62.8804 66.9205C60.9865 67.9053 58.8179 68.3977 56.3747 68.3977C53.6474 68.3977 51.2516 67.7964 49.1872 66.5938C47.1228 65.3816 45.513 63.6629 44.3577 61.4375C43.2118 59.2027 42.6389 56.5511 42.6389 53.483C42.6389 51.125 42.9798 49.0227 43.6616 47.1761C44.3529 45.3201 45.3188 43.7481 46.5594 42.4602C47.7999 41.1723 49.244 40.1922 50.8918 39.5199C52.5395 38.8475 54.3245 38.5114 56.2469 38.5114C57.8946 38.5114 59.4287 38.7528 60.8491 39.2358C62.2696 39.7093 63.5291 40.3816 64.6276 41.2528C65.7355 42.1241 66.6399 43.161 67.3406 44.3636C68.0414 45.5568 68.4912 46.8731 68.6901 48.3125H62.4401ZM99.5124 38.9091V68H94.1999L81.5436 49.6903H81.3305V68H75.18V38.9091H80.5777L93.1345 57.2045H93.3902V38.9091H99.5124ZM135.021 38.9091H141.171V57.8011C141.171 59.9223 140.665 61.7784 139.651 63.3693C138.647 64.9602 137.241 66.2008 135.433 67.0909C133.624 67.9716 131.517 68.4119 129.112 68.4119C126.697 68.4119 124.585 67.9716 122.776 67.0909C120.968 66.2008 119.561 64.9602 118.558 63.3693C117.554 61.7784 117.052 59.9223 117.052 57.8011V38.9091H123.202V57.2756C123.202 58.3835 123.444 59.3684 123.927 60.2301C124.419 61.0919 125.111 61.7689 126.001 62.2614C126.891 62.7538 127.928 63 129.112 63C130.305 63 131.342 62.7538 132.222 62.2614C133.112 61.7689 133.799 61.0919 134.282 60.2301C134.774 59.3684 135.021 58.3835 135.021 57.2756V38.9091ZM147.832 68V38.9091H159.309C161.515 38.9091 163.395 39.3305 164.948 40.1733C166.501 41.0066 167.685 42.1667 168.499 43.6534C169.323 45.1307 169.735 46.8352 169.735 48.767C169.735 50.6989 169.318 52.4034 168.485 53.8807C167.652 55.358 166.444 56.5085 164.863 57.3324C163.291 58.1562 161.387 58.5682 159.153 58.5682H151.837V53.6392H158.158C159.342 53.6392 160.317 53.4356 161.084 53.0284C161.861 52.6117 162.439 52.0388 162.817 51.3097C163.206 50.571 163.4 49.7235 163.4 48.767C163.4 47.8011 163.206 46.9583 162.817 46.2386C162.439 45.5095 161.861 44.946 161.084 44.5483C160.308 44.1411 159.323 43.9375 158.13 43.9375H153.982V68H147.832Z" fill="black"/>
</svg>
